<?xml version="1.0" standalone="no"?><!DOCTYPE svg PUBLIC "-//W3C//DTD SVG 1.1//EN" "http://www.w3.org/Graphics/SVG/1.1/DTD/svg11.dtd"><svg t="1617894491247" class="icon" viewBox="0 0 1024 1024" version="1.1" xmlns="http://www.w3.org/2000/svg" p-id="8363" xmlns:xlink="http://www.w3.org/1999/xlink" width="200" height="200"><defs><style type="text/css"></style></defs><path d="M959.16 587.134c-2.54 1.107-4.705 2.617-6.518 4.472l-0.004 0.004-17.264 18.097a28.288 28.288 0 0 1-19.733 7.979c-4.624 0-8.99-1.106-12.848-3.067l0.161 0.074-34.146-14.58c-11.173-4.464-19.009-15.013-19.439-27.443l-0.001-0.052v-25.45l0.002-0.26c0-11.391-9.108-20.655-20.439-20.905h-40.692c-11.254 0-20.462 9.527-20.462 21.165v25.45c-0.423 12.502-8.293 23.065-19.296 27.424l-0.207 0.072-34.082 14.58c-3.69 1.89-8.049 2.998-12.668 2.998a28.172 28.172 0 0 1-19.695-7.992l0.007 0.007-17.392-18.033c-3.628-3.797-8.732-6.158-14.387-6.158s-10.759 2.361-14.38 6.15l-0.007 0.008-28.903 29.99c-3.714 3.893-5.999 9.177-5.999 14.995s2.285 11.102 6.007 15.004l-0.008-0.009 17.265 17.968c7.993 8.313 10.231 23.404 4.86 33.699l-14.068 35.489c-3.852 11.354-14.086 19.52-26.326 20.266l-0.083 0.004h-24.49c-11.32 0.25-20.401 9.485-20.401 20.841l0.002 0.274v-0.014 42.395c0 11.702 9.208 21.23 20.463 21.23h24.426c11.254 0 23.02 9.144 26.409 20.27l14.068 35.489c1.824 3.854 2.889 8.374 2.889 13.142a31.213 31.213 0 0 1-7.717 20.593l0.032-0.037-17.394 17.969c-3.689 3.915-5.956 9.206-5.956 15.027s2.267 11.111 5.966 15.038l-0.01-0.011 28.903 29.926a20.012 20.012 0 0 0 8.746 5.398l0.142 0.037v6.459H110.817c-0.171 0.002-0.374 0.004-0.576 0.004-25.525 0-46.225-20.657-46.295-46.165V319.721h895.217v267.414z m48.47 193.75c8.505 0 15.475 7.29 15.475 16.179v32.355c0 8.888-7.034 16.114-15.475 16.114h-18.67a22.672 22.672 0 0 0-20.096 15.251l-0.047 0.159-10.678 27.049c-1.402 2.947-2.221 6.403-2.221 10.051a23.765 23.765 0 0 0 5.826 15.621l-0.025-0.03 13.237 13.748c2.828 2.975 4.568 7.007 4.568 11.446s-1.74 8.471-4.574 11.453l0.007-0.007-21.998 22.827c-2.776 2.898-6.677 4.7-10.999 4.7s-8.223-1.801-10.993-4.694l-0.005-0.006-13.108-13.748a21.537 21.537 0 0 0-15.029-6.081c-3.544 0-6.888 0.853-9.839 2.364l0.122-0.057-26.026 11.126c-8.53 3.398-14.512 11.449-14.834 20.935l-0.001 0.039v19.31c0 8.825-7.034 16.115-15.538 16.115h-31.013c-8.655-0.179-15.603-7.237-15.603-15.919l0.001-0.206v0.01-19.31c-0.305-9.531-6.295-17.59-14.678-20.919l-0.157-0.055-26.026-11.126c-2.812-1.445-6.135-2.292-9.657-2.292a21.412 21.412 0 0 0-14.967 6.071l0.005-0.005-13.236 13.747c-2.768 2.915-6.671 4.729-10.999 4.729s-8.231-1.814-10.992-4.722l-0.006-0.007-21.997-22.828c-2.814-2.981-4.543-7.011-4.543-11.446s1.73-8.465 4.551-11.454l-0.008 0.008 13.236-13.748a23.794 23.794 0 0 0 5.832-15.651c0-3.624-0.806-7.06-2.249-10.138l0.062 0.147-10.742-27.048c-2.952-8.604-10.726-14.783-20.016-15.344l-0.063-0.003h-18.671c-8.629-0.212-15.542-7.258-15.542-15.917 0-0.114 0.001-0.228 0.004-0.341v0.017-32.291c0-8.889 7.034-16.114 15.539-16.114h18.671a22.606 22.606 0 0 0 20.096-15.251l0.047-0.159 10.678-27.05c1.402-2.937 2.221-6.384 2.221-10.022a23.632 23.632 0 0 0-5.889-15.644l0.023 0.027-13.172-13.748c-2.81-2.971-4.537-6.991-4.537-11.414s1.728-8.443 4.545-11.422l-0.007 0.008 21.933-22.828c2.768-2.915 6.671-4.729 10.999-4.729s8.231 1.814 10.992 4.722l0.006 0.007 13.236 13.684a21.476 21.476 0 0 0 15.039 6.115c3.515 0 6.834-0.842 9.766-2.335l-0.122 0.057 25.962-11.126c8.54-3.384 14.53-11.443 14.834-20.937l0.001-0.037v-19.375c0-8.824 7.034-16.114 15.602-16.114h31.013c8.504 0 15.538 7.29 15.538 16.114v19.375c0 8.952 6.714 18.352 14.835 20.974l26.026 11.126c7.481 4.156 18.607 2.494 24.682-3.837l13.172-13.684c2.776-2.898 6.677-4.7 10.998-4.7s8.223 1.801 10.993 4.694l0.005 0.006 21.997 22.828c2.81 2.971 4.537 6.991 4.537 11.414s-1.728 8.443-4.545 11.422l0.007-0.008-13.237 13.748a23.664 23.664 0 0 0-5.793 15.558 23.7 23.7 0 0 0 2.275 10.165l-0.062-0.145 10.678 27.112c2.558 8.44 11.574 15.347 20.143 15.347h18.671zM821.233 893.939c42.843 0 77.628-36.129 77.628-80.698s-34.721-80.76-77.628-80.76c-42.906 0-77.692 36.191-77.692 80.76s34.786 80.698 77.692 80.698z m-629.4-421.391c0 13.428 11.253 24.938 25.193 24.938h333.276l0.256 0.001c13.773 0 24.938-11.165 24.938-24.938v-0.001c0-13.429-11.254-24.939-25.194-24.939H217.026l-0.256-0.001c-13.773 0-24.938 11.165-24.938 24.938v0.002z m0 191.832c0 13.428 11.253 24.938 25.065 24.938h269.588c0.134 0.003 0.292 0.004 0.45 0.004 13.596 0 24.618-11.022 24.618-24.618l-0.002-0.341v0.017c0-13.429-11.254-24.939-25.066-24.939H216.898a20.976 20.976 0 0 0-0.45-0.004c-13.596 0-24.618 11.022-24.618 24.618l0.002 0.342v-0.017z m0 191.832c0 13.428 11.253 24.938 25.065 24.938h141.7c13.784-0.036 24.957-11.164 25.066-24.928v-0.01c0-13.428-11.254-24.938-25.066-24.938h-141.7c-13.784 0.036-24.957 11.164-25.066 24.928v0.01zM592.505 63.944C614.502 25.706 655.746 0 703.385 0c47.446 0 88.882 25.578 110.879 63.944h98.026c25.897 0 46.87 20.91 46.87 46.935v144.897H63.945V110.88c0-25.961 20.398-46.935 46.871-46.935h98.026C230.838 25.706 272.081 0 319.721 0c47.446 0 88.881 25.578 110.878 63.944h161.907z m-336.73 63.944c0 35.553 28.647 63.944 63.944 63.944 35.553 0 63.944-28.647 63.944-63.944 0-35.553-28.647-63.944-63.944-63.944-35.553 0-63.944 28.647-63.944 63.944z m383.664 0c0 35.553 28.647 63.944 63.945 63.944 35.552 0 63.944-28.647 63.944-63.944 0-35.553-28.647-63.944-63.944-63.944-35.553 0-63.945 28.647-63.945 63.944z" p-id="8364"></path></svg>