<?xml version="1.0" standalone="no"?><!DOCTYPE svg PUBLIC "-//W3C//DTD SVG 1.1//EN" "http://www.w3.org/Graphics/SVG/1.1/DTD/svg11.dtd"><svg t="1617893340317" class="icon" viewBox="0 0 1033 1024" version="1.1" xmlns="http://www.w3.org/2000/svg" p-id="6381" xmlns:xlink="http://www.w3.org/1999/xlink" width="201.7578125" height="200"><defs><style type="text/css"></style></defs><path d="M1033.309091 572.509091V456.145455l-158.254546-32.581819c-9.309091-32.581818-23.272727-65.163636-41.890909-97.745454l93.090909-134.981818-79.127272-79.127273-134.981818 93.090909c-27.927273-18.618182-65.163636-32.581818-97.745455-41.890909L577.163636 0H465.454545l-32.581818 162.909091c-37.236364 4.654545-69.818182 18.618182-97.745454 37.236364l-134.981818-93.09091-83.781819 83.781819 93.090909 139.636363c-18.618182 27.927273-32.581818 60.509091-41.890909 93.090909l-158.254545 32.581819v116.363636l158.254545 32.581818c9.309091 32.581818 23.272727 65.163636 41.890909 97.745455l-93.090909 134.981818 79.127273 79.127273 134.981818-93.09091c32.581818 18.618182 65.163636 32.581818 97.745455 41.89091L465.454545 1024h116.363637l32.581818-158.254545c32.581818-9.309091 65.163636-18.618182 97.745455-37.236364l134.981818 93.090909 79.127272-79.127273-93.090909-139.636363c18.618182-27.927273 32.581818-65.163636 41.890909-97.745455l158.254546-32.581818z m-512 125.672727c-102.4 0-186.181818-83.781818-186.181818-186.181818s83.781818-186.181818 186.181818-186.181818 186.181818 83.781818 186.181818 186.181818-83.781818 186.181818-186.181818 186.181818z" p-id="6382"></path></svg>